<mxfile host="app.diagrams.net" agent="Mozilla/5.0 (Windows NT 10.0; Win64; x64; rv:131.0) Gecko/20100101 Firefox/131.0" version="24.7.17">
  <diagram name="Page-1" id="1nHGlWU5jBoHTrUnYx-W">
    <mxGraphModel dx="2446" dy="782" grid="1" gridSize="10" guides="1" tooltips="1" connect="1" arrows="1" fold="1" page="1" pageScale="1" pageWidth="850" pageHeight="1100" math="0" shadow="0">
      <root>
        <mxCell id="0" />
        <mxCell id="1" parent="0" />
        <mxCell id="KlgS9JjJHQomffS3OAyq-1" value="Authentication" style="ellipse;whiteSpace=wrap;html=1;" vertex="1" parent="1">
          <mxGeometry x="280" y="310" width="140" height="60" as="geometry" />
        </mxCell>
        <mxCell id="KlgS9JjJHQomffS3OAyq-2" value="Project&lt;br&gt; Owner" style="shape=umlActor;verticalLabelPosition=bottom;verticalAlign=top;html=1;outlineConnect=0;" vertex="1" parent="1">
          <mxGeometry x="510" y="310" width="30" height="60" as="geometry" />
        </mxCell>
        <mxCell id="KlgS9JjJHQomffS3OAyq-3" value="" style="endArrow=classic;html=1;rounded=0;entryX=1;entryY=0.5;entryDx=0;entryDy=0;" edge="1" parent="1" source="KlgS9JjJHQomffS3OAyq-2" target="KlgS9JjJHQomffS3OAyq-1">
          <mxGeometry width="50" height="50" relative="1" as="geometry">
            <mxPoint x="350" y="380" as="sourcePoint" />
            <mxPoint x="400" y="330" as="targetPoint" />
          </mxGeometry>
        </mxCell>
        <mxCell id="KlgS9JjJHQomffS3OAyq-5" value="Create project" style="ellipse;whiteSpace=wrap;html=1;" vertex="1" parent="1">
          <mxGeometry x="600" y="190" width="140" height="60" as="geometry" />
        </mxCell>
        <mxCell id="KlgS9JjJHQomffS3OAyq-8" value="" style="endArrow=classic;html=1;rounded=0;entryX=0;entryY=1;entryDx=0;entryDy=0;" edge="1" parent="1" source="KlgS9JjJHQomffS3OAyq-2" target="KlgS9JjJHQomffS3OAyq-5">
          <mxGeometry width="50" height="50" relative="1" as="geometry">
            <mxPoint x="390" y="330" as="sourcePoint" />
            <mxPoint x="200" y="340" as="targetPoint" />
          </mxGeometry>
        </mxCell>
        <mxCell id="KlgS9JjJHQomffS3OAyq-10" value="Create task" style="ellipse;whiteSpace=wrap;html=1;" vertex="1" parent="1">
          <mxGeometry x="640" y="310" width="140" height="60" as="geometry" />
        </mxCell>
        <mxCell id="KlgS9JjJHQomffS3OAyq-11" value="" style="endArrow=classic;html=1;rounded=0;entryX=0;entryY=0.5;entryDx=0;entryDy=0;" edge="1" parent="1" source="KlgS9JjJHQomffS3OAyq-2" target="KlgS9JjJHQomffS3OAyq-10">
          <mxGeometry width="50" height="50" relative="1" as="geometry">
            <mxPoint x="390" y="330" as="sourcePoint" />
            <mxPoint x="200" y="240" as="targetPoint" />
          </mxGeometry>
        </mxCell>
        <mxCell id="KlgS9JjJHQomffS3OAyq-13" value="Assign contributors &lt;br&gt;to tasks" style="ellipse;whiteSpace=wrap;html=1;" vertex="1" parent="1">
          <mxGeometry x="490" y="480" width="140" height="60" as="geometry" />
        </mxCell>
        <mxCell id="KlgS9JjJHQomffS3OAyq-14" value="" style="endArrow=classic;html=1;rounded=0;entryX=0.5;entryY=0;entryDx=0;entryDy=0;" edge="1" parent="1" source="KlgS9JjJHQomffS3OAyq-2" target="KlgS9JjJHQomffS3OAyq-13">
          <mxGeometry width="50" height="50" relative="1" as="geometry">
            <mxPoint x="390" y="330" as="sourcePoint" />
            <mxPoint x="470" y="460" as="targetPoint" />
          </mxGeometry>
        </mxCell>
        <mxCell id="KlgS9JjJHQomffS3OAyq-16" value="Manage task" style="ellipse;whiteSpace=wrap;html=1;" vertex="1" parent="1">
          <mxGeometry x="620" y="430" width="140" height="60" as="geometry" />
        </mxCell>
        <mxCell id="KlgS9JjJHQomffS3OAyq-17" value="" style="endArrow=classic;html=1;rounded=0;entryX=0;entryY=0;entryDx=0;entryDy=0;" edge="1" parent="1" source="KlgS9JjJHQomffS3OAyq-2" target="KlgS9JjJHQomffS3OAyq-16">
          <mxGeometry width="50" height="50" relative="1" as="geometry">
            <mxPoint x="536" y="380" as="sourcePoint" />
            <mxPoint x="540" y="480" as="targetPoint" />
          </mxGeometry>
        </mxCell>
        <mxCell id="KlgS9JjJHQomffS3OAyq-19" value="View tasks" style="ellipse;whiteSpace=wrap;html=1;" vertex="1" parent="1">
          <mxGeometry x="280" y="440" width="140" height="60" as="geometry" />
        </mxCell>
        <mxCell id="KlgS9JjJHQomffS3OAyq-20" value="" style="endArrow=classic;html=1;rounded=0;entryX=1;entryY=0;entryDx=0;entryDy=0;" edge="1" parent="1" source="KlgS9JjJHQomffS3OAyq-2" target="KlgS9JjJHQomffS3OAyq-19">
          <mxGeometry width="50" height="50" relative="1" as="geometry">
            <mxPoint x="536" y="380" as="sourcePoint" />
            <mxPoint x="540" y="480" as="targetPoint" />
          </mxGeometry>
        </mxCell>
        <mxCell id="KlgS9JjJHQomffS3OAyq-21" value="Archive/delete &lt;br&gt;project" style="ellipse;whiteSpace=wrap;html=1;" vertex="1" parent="1">
          <mxGeometry x="440" y="180" width="140" height="60" as="geometry" />
        </mxCell>
        <mxCell id="KlgS9JjJHQomffS3OAyq-22" value="" style="endArrow=classic;html=1;rounded=0;entryX=0.5;entryY=1;entryDx=0;entryDy=0;" edge="1" parent="1" source="KlgS9JjJHQomffS3OAyq-2" target="KlgS9JjJHQomffS3OAyq-21">
          <mxGeometry width="50" height="50" relative="1" as="geometry">
            <mxPoint x="536" y="380" as="sourcePoint" />
            <mxPoint x="540" y="480" as="targetPoint" />
          </mxGeometry>
        </mxCell>
        <mxCell id="KlgS9JjJHQomffS3OAyq-23" value="Contributor" style="shape=umlActor;verticalLabelPosition=bottom;verticalAlign=top;html=1;" vertex="1" parent="1">
          <mxGeometry x="120" y="310" width="30" height="60" as="geometry" />
        </mxCell>
        <mxCell id="KlgS9JjJHQomffS3OAyq-24" value="" style="endArrow=classic;html=1;rounded=0;entryX=0;entryY=0.5;entryDx=0;entryDy=0;" edge="1" parent="1" source="KlgS9JjJHQomffS3OAyq-23" target="KlgS9JjJHQomffS3OAyq-1">
          <mxGeometry width="50" height="50" relative="1" as="geometry">
            <mxPoint x="200" y="369.31" as="sourcePoint" />
            <mxPoint x="300" y="369.31" as="targetPoint" />
          </mxGeometry>
        </mxCell>
        <mxCell id="KlgS9JjJHQomffS3OAyq-25" value="" style="endArrow=classic;html=1;rounded=0;entryX=0;entryY=0;entryDx=0;entryDy=0;" edge="1" parent="1" source="KlgS9JjJHQomffS3OAyq-23" target="KlgS9JjJHQomffS3OAyq-19">
          <mxGeometry width="50" height="50" relative="1" as="geometry">
            <mxPoint x="160" y="350" as="sourcePoint" />
            <mxPoint x="290" y="350" as="targetPoint" />
          </mxGeometry>
        </mxCell>
        <mxCell id="KlgS9JjJHQomffS3OAyq-26" value="Log work for&lt;br&gt;task" style="ellipse;whiteSpace=wrap;html=1;" vertex="1" parent="1">
          <mxGeometry x="65" y="450" width="140" height="60" as="geometry" />
        </mxCell>
        <mxCell id="KlgS9JjJHQomffS3OAyq-27" value="" style="endArrow=classic;html=1;rounded=0;entryX=0.5;entryY=0;entryDx=0;entryDy=0;" edge="1" parent="1" source="KlgS9JjJHQomffS3OAyq-23" target="KlgS9JjJHQomffS3OAyq-26">
          <mxGeometry width="50" height="50" relative="1" as="geometry">
            <mxPoint x="160" y="360" as="sourcePoint" />
            <mxPoint x="310" y="459" as="targetPoint" />
          </mxGeometry>
        </mxCell>
        <mxCell id="KlgS9JjJHQomffS3OAyq-28" value="Update task" style="ellipse;whiteSpace=wrap;html=1;" vertex="1" parent="1">
          <mxGeometry x="-80" y="310" width="140" height="60" as="geometry" />
        </mxCell>
        <mxCell id="KlgS9JjJHQomffS3OAyq-29" value="" style="endArrow=classic;html=1;rounded=0;entryX=1;entryY=0.5;entryDx=0;entryDy=0;" edge="1" parent="1" source="KlgS9JjJHQomffS3OAyq-23" target="KlgS9JjJHQomffS3OAyq-28">
          <mxGeometry width="50" height="50" relative="1" as="geometry">
            <mxPoint x="160" y="350" as="sourcePoint" />
            <mxPoint x="290" y="350" as="targetPoint" />
          </mxGeometry>
        </mxCell>
        <mxCell id="KlgS9JjJHQomffS3OAyq-30" value="Request deadline&lt;br&gt;change" style="ellipse;whiteSpace=wrap;html=1;" vertex="1" parent="1">
          <mxGeometry x="65" y="190" width="140" height="60" as="geometry" />
        </mxCell>
        <mxCell id="KlgS9JjJHQomffS3OAyq-31" value="" style="endArrow=classic;html=1;rounded=0;entryX=0.5;entryY=1;entryDx=0;entryDy=0;exitX=0.5;exitY=0;exitDx=0;exitDy=0;exitPerimeter=0;" edge="1" parent="1" source="KlgS9JjJHQomffS3OAyq-23" target="KlgS9JjJHQomffS3OAyq-30">
          <mxGeometry width="50" height="50" relative="1" as="geometry">
            <mxPoint x="146" y="380" as="sourcePoint" />
            <mxPoint x="150" y="460" as="targetPoint" />
          </mxGeometry>
        </mxCell>
      </root>
    </mxGraphModel>
  </diagram>
</mxfile>
